<?xml version="1.0" standalone="no"?>
<!DOCTYPE svg PUBLIC "-//W3C//DTD SVG 20010904//EN"
 "http://www.w3.org/TR/2001/REC-SVG-20010904/DTD/svg10.dtd">
<svg version="1.0" xmlns="http://www.w3.org/2000/svg"
 width="256.000000pt" height="256.000000pt" viewBox="0 0 256.000000 256.000000"
 preserveAspectRatio="xMidYMid meet">
<metadata>
Created by potrace 1.11, written by Peter Selinger 2001-2013
</metadata>
<g transform="translate(0.000000,256.000000) scale(0.100000,-0.100000)"
fill="#000000" stroke="none">
<path d="M268 2541 c-52 -17 -148 -69 -148 -81 0 -3 -16 -23 -35 -44 -19 -22
-45 -65 -57 -95 l-23 -56 0 -990 0 -990 32 -66 c35 -71 105 -144 169 -177 82
-42 116 -43 1114 -40 l955 3 67 33 c73 36 146 107 178 175 40 82 41 120 38
1107 l-3 955 -32 65 c-49 100 -117 161 -223 200 -51 19 -87 19 -1014 19 -904
0 -964 -1 -1018 -18z"/>
</g>
</svg>
