<?xml version="1.0" standalone="no"?>
<!DOCTYPE svg PUBLIC "-//W3C//DTD SVG 20010904//EN"
 "http://www.w3.org/TR/2001/REC-SVG-20010904/DTD/svg10.dtd">
<svg version="1.0" xmlns="http://www.w3.org/2000/svg"
 width="267.000000pt" height="267.000000pt" viewBox="0 0 267.000000 267.000000"
 preserveAspectRatio="xMidYMid meet">
<metadata>
Created by potrace 1.11, written by Peter Selinger 2001-2013
</metadata>
<g transform="translate(0.000000,267.000000) scale(0.100000,-0.100000)"
fill="#000000" stroke="none">
<path d="M1879 2566 c-70 -28 -113 -61 -191 -146 -78 -84 -117 -107 -193 -116
-78 -9 -117 -26 -148 -64 l-26 -31 -16 38 c-9 21 -22 55 -28 76 -10 30 -17 37
-38 37 -35 0 -93 -40 -97 -67 -3 -21 18 -71 58 -142 11 -19 19 -36 17 -37 -1
-1 -40 3 -87 10 -194 29 -448 -8 -588 -86 -31 -17 -60 -35 -66 -39 -6 -5 -47
-38 -91 -73 -99 -79 -131 -113 -183 -198 -83 -134 -149 -279 -170 -373 -22
-96 -24 -111 -28 -186 -6 -141 54 -351 137 -479 109 -169 255 -321 375 -391
223 -131 432 -171 627 -121 42 11 77 18 77 16 0 -3 -7 -16 -16 -30 -21 -31
-12 -41 22 -25 25 11 26 10 20 -13 -8 -34 13 -44 34 -17 l16 23 15 -22 c9 -14
20 -19 32 -15 22 9 22 43 0 67 -9 10 -11 18 -5 18 6 0 21 -14 33 -32 l23 -32
7 24 c4 16 0 32 -9 43 -13 15 -13 17 1 17 9 0 42 -7 74 -15 56 -15 211 -21
263 -10 14 3 38 8 54 11 16 2 33 7 38 10 4 3 16 7 25 9 28 5 174 61 229 86 70
33 161 95 218 148 45 43 153 176 187 231 58 93 140 263 155 320 32 124 34 141
30 280 -3 80 -10 167 -16 194 -24 106 -155 329 -250 423 -91 91 -330 204 -517
244 -138 30 -337 32 -505 4 -21 -4 -38 -3 -38 2 0 4 21 27 48 50 37 33 61 45
116 58 39 9 93 26 120 38 64 27 124 27 200 -2 88 -33 149 -38 309 -27 59 4 89
1 130 -13 165 -58 264 -132 313 -239 16 -34 32 -62 36 -62 14 0 -2 173 -22
240 -15 49 -37 91 -79 147 -89 119 -131 151 -287 216 -78 33 -101 38 -204 42
-71 4 -94 1 -141 -19z m188 1 c3 -4 -5 -7 -19 -7 -23 0 -111 -51 -124 -72 -13
-20 3 -16 31 9 43 37 90 54 154 56 45 1 72 -7 141 -38 47 -21 100 -48 117 -60
l33 -22 -54 5 c-29 2 -56 0 -59 -6 -4 -5 11 -9 36 -10 86 0 99 -6 154 -73 50
-62 62 -90 24 -55 -10 9 -29 18 -42 19 -13 1 -66 24 -116 50 -51 26 -112 55
-135 63 -80 30 -341 24 -323 -7 3 -4 17 -4 31 1 14 6 50 11 80 13 53 4 56 2
71 -27 23 -43 76 -114 91 -120 20 -9 14 7 -16 39 -39 42 -62 77 -62 94 0 10
10 12 43 8 90 -13 112 -22 115 -52 1 -13 15 -46 32 -73 16 -27 30 -52 30 -54
0 -3 -18 1 -41 8 -48 17 -84 19 -199 9 -94 -8 -204 10 -269 43 -44 22 -103 20
-162 -6 -63 -28 -80 -33 -114 -38 -51 -8 -88 -26 -137 -66 -41 -33 -48 -36
-48 -20 0 25 35 69 69 87 16 8 50 17 77 20 86 11 93 13 127 37 17 12 70 61
117 109 91 93 120 112 202 133 53 13 132 15 145 3z m280 -223 c61 -34 85 -54
63 -54 -13 0 -3 -68 13 -87 13 -18 3 -16 -46 6 -31 15 -53 36 -81 81 -22 33
-41 70 -43 81 -4 25 5 23 94 -27z m-1107 -10 c-12 -13 -72 -44 -87 -44 -14 0
26 35 52 46 40 18 50 17 35 -2z m66 -145 c57 -164 58 -179 18 -198 -28 -12
-36 -10 -41 14 -9 43 -5 35 -82 176 -22 42 -41 81 -41 86 0 9 80 51 94 48 5 0
29 -57 52 -126z m1191 89 c18 -13 36 -31 39 -40 3 -10 12 -25 21 -34 19 -19
43 -113 43 -169 l0 -40 -18 35 c-9 19 -43 61 -75 93 -73 71 -116 167 -75 167
8 0 93 -111 101 -132 2 -7 8 -10 12 -6 4 4 -15 39 -43 78 -29 38 -49 70 -45
70 4 0 22 -10 40 -22z m-1013 -175 c-68 -52 -99 -81 -92 -88 3 -3 25 12 49 34
81 74 149 96 255 79 36 -5 60 -5 62 0 4 12 55 6 161 -20 119 -29 291 -102 378
-160 23 -15 44 -28 48 -28 15 0 92 -93 151 -181 67 -101 129 -224 139 -274 12
-63 26 -291 19 -310 -4 -8 -129 -11 -271 -6 -20 1 -23 6 -23 44 0 23 -5 49
-10 57 -8 13 -10 12 -10 -3 0 -16 -4 -15 -37 8 -21 14 -43 25 -50 25 -7 0 -15
16 -19 35 -7 40 -14 38 -30 -8 -6 -18 -13 -30 -16 -27 -2 3 -21 -8 -41 -23
-31 -24 -37 -25 -37 -11 0 36 -21 -3 -25 -44 -2 -22 -5 -44 -8 -49 -4 -7 -49
-9 -89 -4 -5 1 -8 111 -8 245 0 134 -4 265 -10 292 -9 46 -12 63 -26 124 -3
14 -7 36 -10 50 -16 89 -18 88 -62 -59 -41 -138 -42 -143 -42 -291 l0 -151
-45 43 c-32 31 -45 51 -45 71 0 16 -4 26 -9 23 -4 -3 -7 -16 -5 -28 3 -17 -8
-33 -44 -62 l-47 -39 -6 164 c-4 127 -11 190 -32 281 -15 65 -27 132 -27 148
0 18 -4 29 -10 25 -5 -3 -10 -2 -10 4 0 5 -12 13 -27 19 l-28 9 26 5 c14 2 47
-1 73 -7 25 -7 46 -9 46 -4 0 12 -52 26 -92 25 -29 -1 -34 2 -25 13 8 9 30 12
79 9 37 -2 68 0 68 4 0 4 -8 9 -17 9 -10 1 -36 3 -58 4 -43 3 -112 -22 -145
-53 l-21 -19 50 -5 c28 -3 57 -11 66 -18 19 -16 19 -60 1 -105 -8 -19 -13 -35
-11 -35 2 0 -8 -33 -23 -72 -25 -70 -26 -83 -32 -347 -5 -264 -6 -274 -25
-277 -11 -2 -29 5 -40 15 -15 14 -26 17 -42 10 -13 -4 -23 -12 -23 -17 0 -4
-14 -7 -31 -7 -24 1 -35 8 -52 38 -11 20 -29 40 -40 43 -10 3 -23 17 -29 30
-13 28 -26 31 -35 7 -7 -19 -76 -93 -87 -93 -4 0 -6 29 -5 65 1 39 -3 70 -10
79 -7 8 -10 20 -6 25 3 6 -3 28 -14 49 -11 22 -17 42 -14 46 4 3 2 6 -3 6 -13
0 -33 -55 -36 -97 -1 -18 -6 -33 -10 -33 -4 0 -8 -31 -8 -70 l0 -70 -65 0
c-64 0 -64 0 -74 33 l-9 32 -12 -32 c-10 -28 -15 -31 -31 -23 -20 11 -22 2
-21 -90 1 -31 -2 -36 -23 -38 -23 -2 -23 0 -25 101 -1 56 -1 116 -1 133 0 18
-8 41 -19 54 -11 12 -17 26 -15 31 3 4 1 10 -5 14 -5 3 -10 0 -10 -8 0 -8 -9
-26 -21 -41 -13 -17 -19 -35 -16 -48 9 -33 -3 -77 -19 -71 -8 3 -11 10 -7 16
4 6 0 8 -10 4 -14 -5 -17 0 -17 32 0 22 5 41 10 43 20 6 14 74 -9 106 -12 17
-21 34 -20 39 5 28 -5 19 -31 -31 -17 -31 -28 -62 -24 -68 8 -12 6 -129 -2
-137 -11 -11 -24 26 -24 67 0 23 -4 42 -8 42 -5 0 -16 15 -25 33 l-16 32 0
-27 c-1 -16 -5 -28 -10 -28 -21 0 -26 -48 -35 -293 -2 -49 -7 -92 -12 -97 -6
-6 -25 -12 -44 -15 -32 -6 -33 -5 -15 7 28 18 34 103 7 95 -9 -2 -64 -17 -122
-33 -58 -16 -97 -30 -87 -32 13 -3 17 -13 17 -43 0 -24 5 -39 13 -39 22 0 -17
-20 -40 -20 -25 0 -30 6 -36 41 -3 13 -10 44 -17 69 -34 126 -31 208 14 405
26 116 180 389 260 463 83 75 196 158 261 190 108 54 359 98 422 74 16 -5 54
-18 86 -27 31 -9 57 -18 57 -20 0 -1 -33 -2 -72 0 -76 2 -189 -17 -242 -40
-28 -12 -29 -13 -8 -14 13 -1 31 3 41 9 32 16 74 23 181 26 87 3 112 0 148
-16 42 -19 53 -16 30 9 -11 11 -9 11 10 2 15 -8 22 -8 22 -1 0 6 -8 14 -17 17
-10 4 -20 10 -23 13 -3 4 -14 12 -25 18 -19 11 -19 11 5 11 39 0 58 -21 73
-80 l14 -53 -45 -30 c-25 -17 -40 -32 -34 -34 6 -2 27 8 45 22 19 14 39 26 45
26 7 0 12 3 12 8 0 4 14 13 31 21 17 7 33 21 36 30 12 33 66 92 102 111 59 31
67 23 15 -17z m-78 -16 c-23 -24 -41 -43 -42 -43 -1 1 -4 16 -7 33 -6 30 -4
33 26 42 62 18 66 13 23 -32z m-258 4 c23 -12 42 -24 42 -27 0 -3 -4 -3 -9 0
-15 10 -66 29 -85 33 -10 2 -26 8 -35 13 -34 20 44 3 87 -19z m764 -512 c-2
-16 -7 -27 -10 -24 -9 9 -12 38 -6 59 9 28 21 1 16 -35z m-352 -5 c0 -20 -4
-33 -10 -29 -11 7 -9 65 3 65 4 0 7 -16 7 -36z m7 -152 c1 -29 -2 -42 -11 -42
-9 0 -14 15 -14 46 -2 59 22 55 25 -4z m349 -8 c0 -28 -3 -43 -10 -41 -11 4
-17 73 -8 90 8 17 17 -6 18 -49z m-175 -47 c-13 -13 -26 -3 -16 12 3 6 11 8
17 5 6 -4 6 -10 -1 -17z m-708 -11 c3 -8 -1 -20 -9 -26 -12 -10 -14 -8 -14 14
0 28 14 35 23 12z m-473 -87 c0 -21 -4 -39 -10 -39 -5 0 -10 21 -10 46 0 27 4
43 10 39 6 -3 10 -24 10 -46z m-32 16 c1 -14 -2 -25 -7 -25 -5 0 -8 11 -8 25
0 14 2 25 6 25 4 0 8 -11 9 -25z m1209 -22 c-3 -10 -5 -4 -5 12 0 17 2 24 5
18 2 -7 2 -21 0 -30z m53 12 c0 -14 -4 -25 -8 -25 -7 0 -8 31 -3 48 4 11 11
-3 11 -23z m-752 -8 c2 -10 -3 -17 -12 -17 -18 0 -29 16 -21 31 9 14 29 6 33
-14z m658 8 c-4 -24 -16 -30 -16 -7 0 12 4 22 9 22 5 0 8 -7 7 -15z m-1166
-29 c0 -3 -4 -8 -10 -11 -5 -3 -10 -1 -10 4 0 6 5 11 10 11 6 0 10 -2 10 -4z
m-90 -42 c0 -21 -4 -33 -10 -29 -5 3 -10 19 -10 36 0 16 5 29 10 29 6 0 10
-16 10 -36z m238 -4 c0 -16 -4 -30 -9 -30 -5 0 -9 16 -9 36 0 42 17 38 18 -6z
m1554 22 c2 -4 25 -25 53 -45 l49 -38 2 -64 c1 -49 -2 -65 -12 -65 -10 0 -14
14 -14 49 0 28 -4 53 -10 56 -11 7 -13 0 -14 -59 -2 -62 -26 -59 -26 3 0 37
-4 51 -14 51 -10 0 -13 -13 -12 -47 0 -29 -4 -48 -11 -50 -9 -3 -13 10 -13 46
0 28 -4 51 -10 51 -5 0 -10 -22 -10 -50 0 -37 -4 -50 -14 -50 -11 0 -14 12
-13 50 2 40 -1 50 -13 48 -11 -2 -15 -16 -15 -51 1 -32 -3 -47 -12 -47 -9 0
-13 19 -12 68 l0 67 52 42 c54 44 63 48 69 35z m-1006 -54 c12 -13 17 -32 15
-55 -2 -20 -121 -18 -121 2 0 60 67 94 106 53z m532 -60 c3 -67 3 -68 -23 -68
-24 0 -25 2 -25 71 0 67 1 70 23 67 20 -3 22 -9 25 -70z m-1202 -8 c2 -16 -1
-30 -6 -30 -6 0 -10 17 -10 37 0 42 11 38 16 -7z m1113 -14 c1 -35 -2 -46 -12
-46 -11 0 -14 12 -12 48 3 55 3 55 13 48 5 -3 9 -25 11 -50z m156 3 c0 -24 -6
-44 -13 -47 -8 -2 -12 10 -12 41 0 43 6 60 19 53 4 -3 6 -24 6 -47z m-960 11
c-5 -8 -11 -8 -17 -2 -6 6 -7 16 -3 22 5 8 11 8 17 2 6 -6 7 -16 3 -22z m55 0
c-18 -11 -24 -6 -16 16 5 14 9 15 19 5 9 -9 9 -14 -3 -21z m70 10 c0 -10 -26
-20 -33 -13 -3 3 -3 11 0 18 5 14 33 9 33 -5z m-460 -20 c0 -16 -4 -30 -9 -30
-5 0 -8 14 -7 30 0 17 4 30 8 30 5 0 8 -13 8 -30z m56 -6 c0 -14 -3 -27 -8
-30 -4 -3 -8 12 -8 32 0 40 13 39 16 -2z m-146 -9 c0 -14 -4 -25 -10 -25 -5 0
-10 11 -10 25 0 14 5 25 10 25 6 0 10 -11 10 -25z m240 0 c0 -14 -4 -25 -10
-25 -5 0 -10 11 -10 25 0 14 5 25 10 25 6 0 10 -11 10 -25z m1300 -10 c0 -14
-3 -25 -7 -25 -5 0 -8 11 -8 25 0 14 3 25 8 25 4 0 7 -11 7 -25z m30 -12 c0
-20 -3 -33 -7 -29 -10 10 -11 66 -1 66 4 0 8 -16 8 -37z m27 -15 c-2 -13 -4
-5 -4 17 -1 22 1 32 4 23 2 -10 2 -28 0 -40z m39 16 c0 -14 -3 -27 -8 -30 -4
-3 -8 12 -8 32 0 40 13 39 16 -2z m301 -16 c-2 -13 -4 -5 -4 17 -1 22 1 32 4
23 2 -10 2 -28 0 -40z m40 17 c2 -13 0 -26 -5 -29 -4 -2 -9 12 -10 32 -3 39
10 37 15 -3z m33 -2 c0 -41 -6 -41 -14 -1 -4 23 0 38 11 38 2 0 3 -16 3 -37z
m27 -15 c-2 -13 -4 -5 -4 17 -1 22 1 32 4 23 2 -10 2 -28 0 -40z m71 16 c-1
-23 -4 -31 -9 -22 -7 13 -2 58 7 58 2 0 3 -16 2 -36z m29 -16 c-2 -13 -4 -5
-4 17 -1 22 1 32 4 23 2 -10 2 -28 0 -40z m36 32 c3 -11 1 -23 -4 -26 -5 -3
-9 6 -9 20 0 31 6 34 13 6z m-1296 -42 c-2 -13 -4 -5 -4 17 -1 22 1 32 4 23 2
-10 2 -28 0 -40z m40 0 c-2 -13 -4 -5 -4 17 -1 22 1 32 4 23 2 -10 2 -28 0
-40z m53 16 c0 -19 -4 -33 -9 -29 -5 3 -8 18 -6 33 4 34 4 32 10 32 3 0 5 -16
5 -36z m40 -1 c0 -24 -3 -33 -9 -25 -7 12 -4 62 5 62 2 0 4 -17 4 -37z m1062
7 c-2 -16 -6 -30 -8 -30 -2 0 -4 14 -4 30 0 17 4 30 8 30 5 0 7 -13 4 -30z
m-1928 -32 c9 -13 16 -43 16 -70 l0 -48 -49 0 c-55 0 -61 7 -54 65 7 69 56 98
87 53z m-314 -18 c0 -5 -5 -10 -11 -10 -5 0 -7 5 -4 10 3 6 8 10 11 10 2 0 4
-4 4 -10z m30 -10 c0 -15 -7 -20 -25 -20 -24 0 -24 1 -7 19 22 25 32 26 32 1z
m-60 -15 c0 -17 -6 -22 -24 -22 -18 0 -24 5 -23 18 1 9 5 15 9 13 4 -3 8 -1 8
4 0 5 7 9 15 9 9 0 15 -9 15 -22z m200 5 c0 -11 -4 -20 -8 -20 -4 0 -8 9 -9
20 -1 11 2 20 8 20 5 0 9 -9 9 -20z m240 6 c0 -8 -4 -18 -10 -21 -5 -3 -10 3
-10 14 0 12 5 21 10 21 6 0 10 -6 10 -14z m-500 -35 c0 -11 -9 -17 -27 -18
-16 -1 -22 1 -15 4 6 2 12 9 12 14 0 6 -4 7 -10 4 -10 -6 -14 8 -4 17 11 11
44 -5 44 -21z m2240 -11 c36 -5 87 -11 114 -14 27 -3 51 -8 54 -10 7 -8 -107
-231 -139 -270 -5 -6 -35 -45 -67 -86 -124 -159 -256 -246 -502 -330 -176 -61
-370 -61 -506 0 -58 25 -60 25 -128 -5 -31 -14 -56 -23 -56 -21 0 2 -28 -4
-63 -13 -196 -53 -459 11 -667 162 -80 59 -166 151 -282 303 -6 8 32 11 131
11 124 1 192 5 311 18 19 2 62 7 95 10 105 9 160 16 175 20 8 2 35 7 60 10 25
3 52 8 60 10 8 2 31 7 50 10 19 3 62 13 95 21 33 9 67 17 75 19 8 2 49 17 90
34 73 29 228 73 300 85 66 11 245 36 280 39 74 7 458 4 520 -3z m-2154 -19
c-3 -4 -18 -11 -33 -14 -16 -3 -37 -9 -48 -13 -14 -5 -17 -4 -10 4 6 6 26 15
45 20 46 13 52 14 46 3z m107 -20 c2 -10 2 -23 -2 -29 -6 -11 -82 -34 -89 -27
-10 10 12 47 36 60 36 19 49 18 55 -4z m-126 -53 c13 -14 7 -17 -50 -31 -35
-9 -71 -19 -80 -23 -29 -11 -20 32 11 54 31 24 95 23 119 0z"/>
<path d="M1110 1998 c-59 -15 -138 -49 -152 -66 -7 -8 -8 -13 -3 -11 6 3 32
15 58 27 69 31 156 49 197 41 36 -8 49 -5 36 8 -10 10 -96 11 -136 1z"/>
<path d="M1340 1972 c0 -5 6 -9 13 -9 53 -2 117 -17 144 -33 18 -11 33 -15 33
-10 0 17 -44 38 -104 49 -72 13 -86 14 -86 3z"/>
<path d="M1906 1965 c4 -8 10 -12 15 -9 11 6 2 24 -11 24 -5 0 -7 -7 -4 -15z"/>
<path d="M2222 1393 c5 -25 58 -26 58 -1 0 13 -8 18 -31 18 -23 0 -30 -4 -27
-17z"/>
<path d="M2100 1297 c0 -19 23 -28 41 -17 16 10 12 15 -18 24 -17 5 -23 3 -23
-7z"/>
<path d="M2340 1288 c0 -7 11 -14 25 -14 15 -1 25 3 25 12 0 8 -10 14 -25 14
-14 0 -25 -6 -25 -12z"/>
<path d="M1892 877 c-16 -19 2 -34 22 -18 9 7 16 7 23 0 8 -8 13 -8 17 0 12
19 -3 32 -24 21 -13 -7 -20 -6 -22 1 -2 7 -8 6 -16 -4z"/>
<path d="M2053 848 c-50 -24 -39 -60 25 -79 53 -16 63 -41 25 -66 -20 -14 -24
-13 -48 13 -22 23 -25 24 -25 8 0 -27 12 -42 35 -44 41 -5 55 1 71 25 24 37 6
72 -41 81 -33 6 -55 27 -42 40 14 14 57 13 65 -2 6 -10 12 -13 16 -6 8 14 -21
42 -42 41 -9 0 -27 -5 -39 -11z"/>
<path d="M2201 829 c-54 -59 -14 -162 59 -151 31 4 65 45 54 64 -4 7 -12 1
-21 -16 -17 -33 -67 -37 -83 -5 -17 31 -5 52 28 47 37 -7 77 5 76 22 -4 72
-65 93 -113 39z m88 -15 c6 -14 11 -26 11 -27 0 -1 -21 -2 -47 -2 -53 0 -62
12 -34 42 25 26 54 20 70 -13z"/>
<path d="M1975 775 c6 -73 6 -75 -19 -86 -46 -21 -59 -4 -69 99 -2 18 -9 38
-16 45 -10 9 -11 1 -7 -40 3 -28 10 -70 16 -92 12 -44 26 -49 100 -35 31 7 32
7 25 53 -10 70 -13 94 -14 114 -1 9 -6 17 -12 17 -8 0 -9 -23 -4 -75z"/>
<path d="M1747 800 c-22 -17 -29 -19 -45 -9 -12 7 -27 9 -38 4 -11 -4 -25 -9
-32 -11 -21 -4 -22 -5 -9 -89 8 -47 18 -80 26 -83 13 -4 13 4 -5 106 -7 34 12
61 37 55 23 -6 45 -49 54 -105 9 -56 27 -47 20 10 -4 26 -8 54 -11 63 -2 9 4
27 15 40 18 23 20 23 39 6 11 -10 24 -43 31 -77 7 -33 16 -60 22 -60 21 0 -4
119 -32 149 -25 26 -39 26 -72 1z"/>
<path d="M1470 728 c-25 -40 -21 -90 10 -123 30 -32 53 -36 88 -15 26 16 47
62 34 74 -9 10 -22 -5 -22 -24 0 -29 -37 -51 -66 -38 -24 11 -38 34 -29 48 4
6 44 19 77 24 4 1 13 7 19 13 20 20 -20 67 -59 71 -26 3 -35 -2 -52 -30z m86
-3 c15 -15 10 -40 -6 -30 -5 3 -11 1 -15 -5 -3 -5 -20 -10 -36 -10 -27 0 -30
3 -23 23 12 39 52 50 80 22z"/>
<path d="M1380 720 c-8 -4 -27 -13 -42 -18 -15 -6 -33 -24 -41 -39 -13 -24
-13 -35 0 -75 8 -29 19 -48 28 -48 8 0 15 -4 15 -9 0 -12 52 0 68 16 18 18 32
16 33 -4 0 -10 2 -33 4 -51 6 -57 -45 -82 -85 -42 -11 11 -20 25 -20 30 0 6
-7 10 -15 10 -14 0 -14 -3 0 -29 23 -45 51 -61 88 -50 54 15 66 53 45 129 -14
49 -60 190 -61 189 -1 0 -9 -4 -17 -9z m8 -42 c5 -7 15 -30 20 -51 9 -33 8
-41 -9 -58 -37 -37 -62 -24 -88 45 -18 46 47 100 77 64z"/>
<path d="M1196 702 c-4 -7 -5 -16 -1 -21 3 -5 -2 -17 -11 -25 -15 -16 -15 -17
8 -20 6 0 15 -14 20 -31 5 -16 12 -37 14 -45 3 -8 5 -17 5 -20 1 -11 33 -40
46 -40 17 0 17 17 -1 27 -30 18 -61 123 -37 123 6 0 11 5 11 10 0 6 -7 10 -15
10 -9 0 -19 10 -24 22 -5 14 -10 17 -15 10z"/>
<path d="M1122 669 c2 -17 -3 -22 -26 -25 -16 -1 -39 -12 -51 -24 -65 -61 -15
-188 62 -159 15 6 31 16 36 22 7 9 10 9 14 0 10 -26 23 -12 17 20 -3 17 -7 46
-10 62 -7 60 -26 125 -36 125 -5 0 -8 -10 -6 -21z m16 -87 c21 -60 -16 -119
-65 -106 -48 13 -51 114 -4 138 32 17 55 7 69 -32z"/>
<path d="M760 617 c0 -16 -7 -30 -16 -34 -15 -6 -15 -7 1 -19 12 -9 19 -29 21
-60 3 -47 25 -84 51 -84 18 0 16 13 -5 26 -10 7 -19 26 -20 45 -1 19 -5 42 -8
51 -3 10 3 21 13 27 17 9 17 11 2 23 -9 7 -21 22 -27 33 -11 18 -11 18 -12 -8z"/>
<path d="M605 605 c-38 -37 -32 -76 15 -90 65 -19 92 -63 51 -85 -16 -8 -26
-5 -50 15 -30 26 -51 21 -28 -7 19 -23 60 -36 84 -27 60 22 47 96 -19 114 -5
2 -11 4 -15 5 -5 1 -11 2 -15 1 -4 0 -12 7 -17 18 -7 13 -6 24 5 39 20 28 30
28 59 -4 14 -15 25 -25 26 -23 0 2 2 12 4 22 3 17 -24 38 -58 44 -10 2 -29 -8
-42 -22z"/>
<path d="M905 610 c-24 -9 -50 -38 -42 -46 3 -3 15 4 27 16 22 22 61 24 67 3
3 -7 -10 -15 -31 -18 -62 -12 -99 -77 -66 -115 20 -23 54 -26 93 -6 15 8 27
11 27 5 0 -5 4 -9 10 -9 18 0 -12 159 -34 172 -14 9 -25 9 -51 -2z m65 -99
c-1 -22 -31 -58 -57 -65 -15 -5 -25 -1 -36 14 -25 36 -6 66 53 83 19 6 40 -11
40 -32z"/>
</g>
</svg>
